      <svg class="me-1" width="17" height="17" viewBox="0 0 17 17" fill="none"
                            xmlns="http://www.w3.org/2000/svg">
                            <mask id="mask0_55_1683" style="mask-type:alpha" maskUnits="userSpaceOnUse" x="1" y="1"
                                width="15" height="15">
                                <path
                                    d="M1 7.66667C1 4.52397 1 2.95262 1.97631 1.97631C2.95262 1 4.52397 1 7.66667 1H9.33333C12.476 1 14.0474 1 15.0237 1.97631C16 2.95262 16 4.52397 16 7.66667V9.33333C16 12.476 16 14.0474 15.0237 15.0237C14.0474 16 12.476 16 9.33333 16H7.66667C4.52397 16 2.95262 16 1.97631 15.0237C1 14.0474 1 12.476 1 9.33333V7.66667Z"
                                    fill="#273B4A" />
                            </mask>
                            <g mask="url(#mask0_55_1683)">
                                <path
                                    d="M3.00785 8.99185L2.88055 9.11918C2.06333 9.93635 1.65472 10.345 1.41014 10.8466C1.32516 11.0209 1.25554 11.2023 1.2021 11.3888C1.0483 11.9253 1.07868 12.5023 1.13942 13.6565L1.41628 18.9168H15.9996V14.9645C15.9996 13.755 15.9996 13.1503 15.8008 12.6007C15.7464 12.4504 15.6814 12.3043 15.606 12.1634C15.3305 11.6479 14.881 11.2433 13.982 10.4343L13.8032 10.2733C13.0564 9.60127 12.6831 9.26527 12.2561 9.17002C11.9883 9.11027 11.7099 9.1176 11.4456 9.19135C11.0242 9.30885 10.669 9.66402 9.95861 10.3744C9.43161 10.9014 9.16819 11.1648 8.88503 11.2006C8.70953 11.2228 8.53153 11.1884 8.37678 11.1027C8.12719 10.9644 7.97811 10.6167 7.68011 9.92118C7.04619 8.4421 6.72923 7.70252 6.18434 7.42935C5.91002 7.29185 5.60305 7.23277 5.29728 7.25852C4.68991 7.30977 4.12923 7.87052 3.00785 8.99185Z"
                                    stroke="white" stroke-width="1.5" />
                            </g>
                            <path
                                d="M1 7.66667C1 4.52397 1 2.95262 1.97631 1.97631C2.95262 1 4.52397 1 7.66667 1H9.33333C12.476 1 14.0474 1 15.0237 1.97631C16 2.95262 16 4.52397 16 7.66667V9.33333C16 12.476 16 14.0474 15.0237 15.0237C14.0474 16 12.476 16 9.33333 16H7.66667C4.52397 16 2.95262 16 1.97631 15.0237C1 14.0474 1 12.476 1 9.33333V7.66667Z"
                                stroke="white" stroke-width="1.5" />
                            <path
                                d="M12.2497 6.35704C13.1373 6.35704 13.8569 5.6375 13.8569 4.7499C13.8569 3.8623 13.1373 3.14275 12.2497 3.14275C11.3621 3.14275 10.6426 3.8623 10.6426 4.7499C10.6426 5.6375 11.3621 6.35704 12.2497 6.35704Z"
                                fill="white" />
                        </svg>
